# xmcd
#
# Track frame offsets:
#	150
#	19563
#	34413
#	51691
#	66623
#	86256
#	99748
#	113272
#	128987
#	146563
#	162112
#	181810
#
# Disc length: 2649 seconds
#
# Revision: 1
# Processed by: cddbd v1.4PL0 Copyright (c) Steve Scherf et al.
# Submitted via: audiograbber 1.81.01
#
DISCID=a20a570c
DTITLE=Gilda Giuliani - I Grandi Successi Originali cd1
DYEAR=1900
DGENRE=Pop
TTITLE0=Serena
TTITLE1=Si ricomincia
TTITLE2=Tutto e facile
TTITLE3=Non è la verità
TTITLE4=La trappola
TTITLE5=Canzoni per i miei genitori
TTITLE6=Io corro da te
TTITLE7=Amore, amore immenso
TTITLE8=Tempo si solitudine
TTITLE9=Lui tornerà stasera
TTITLE10=Geronimo in cadillac
TTITLE11=Non fù peccato
EXTD=
EXTT0=
EXTT1=
EXTT2=
EXTT3=
EXTT4=
EXTT5=
EXTT6=
EXTT7=
EXTT8=
EXTT9=
EXTT10=
EXTT11=
PLAYORDER=
